<?xml version="1.0" standalone="no"?>
<!DOCTYPE svg PUBLIC "-//W3C//DTD SVG 20010904//EN"
 "http://www.w3.org/TR/2001/REC-SVG-20010904/DTD/svg10.dtd">
<svg version="1.0" xmlns="http://www.w3.org/2000/svg"
 width="396.000000pt" height="396.000000pt" viewBox="0 0 396.000000 396.000000"
 preserveAspectRatio="xMidYMid meet">
<metadata>
Created by potrace 1.14, written by Peter Selinger 2001-2017
</metadata>
<g transform="translate(0.000000,396.000000) scale(0.100000,-0.100000)"
fill="#000000" stroke="none">
<path d="M1838 3845 c-2 -1 -28 -6 -58 -9 -178 -21 -414 -110 -575 -219 -33
-22 -62 -43 -65 -46 -3 -3 -27 -24 -54 -45 -149 -120 -276 -283 -366 -471 -45
-94 -91 -223 -104 -290 -4 -16 -9 -41 -12 -55 -15 -75 -19 -131 -18 -285 0
-133 5 -193 22 -276 69 -334 200 -634 440 -1003 35 -55 68 -104 73 -110 5 -6
46 -60 91 -121 183 -247 504 -602 681 -753 47 -40 104 -44 154 -9 32 21 289
278 383 383 81 90 244 288 300 364 30 41 57 77 60 80 19 16 179 265 244 378
170 296 277 580 320 847 16 103 19 366 5 440 -25 134 -33 166 -61 249 -163
494 -600 863 -1117 941 -72 11 -333 19 -343 10z m317 -639 c273 -73 475 -261
558 -521 27 -81 32 -124 31 -245 0 -91 -5 -132 -24 -195 -85 -284 -304 -487
-595 -551 -59 -13 -193 -15 -262 -4 -309 49 -550 265 -635 567 -27 98 -29 273
-5 375 73 301 329 538 634 587 72 12 230 5 298 -13z"/>
<path d="M1707 2908 c-9 -5 -17 -20 -17 -33 0 -14 -6 -25 -12 -25 -7 0 -25 -7
-40 -14 -24 -13 -30 -13 -42 0 -19 18 -40 18 -56 -1 -10 -13 -10 -19 5 -35 15
-17 16 -24 5 -52 -18 -45 -30 -59 -48 -56 -8 2 -19 -4 -25 -14 -14 -21 7 -48
37 -48 30 0 53 -72 32 -102 -8 -11 -12 -27 -9 -34 6 -16 44 -19 60 -3 7 7 23
6 52 -3 31 -10 41 -18 41 -34 0 -50 54 -54 63 -5 5 21 15 30 46 41 36 11 43
11 58 -3 35 -31 72 16 39 49 -23 22 7 90 44 97 47 10 47 53 0 62 -28 5 -25 2
-43 47 -14 32 -14 38 -1 49 20 16 14 53 -9 57 -10 2 -26 -3 -35 -11 -15 -13
-20 -14 -42 -2 -14 8 -33 14 -43 15 -11 0 -18 7 -16 18 4 42 -13 58 -44 40z
m109 -159 c25 -26 29 -38 29 -84 0 -43 -5 -59 -25 -80 -50 -54 -112 -65 -167
-29 -93 59 -67 210 40 232 52 11 86 0 123 -39z"/>
<path d="M1677 2739 c-21 -12 -22 -32 -3 -48 18 -15 43 -5 49 20 7 24 -21 41
-46 28z"/>
<path d="M1728 2633 c-12 -15 -2 -43 19 -50 16 -6 43 25 37 41 -8 21 -42 26
-56 9z"/>
<path d="M2187 2902 c-51 -31 -58 -96 -15 -142 20 -21 20 -22 2 -57 -11 -19
-22 -36 -25 -38 -3 -2 -26 7 -52 20 -41 23 -47 23 -61 9 -21 -21 -20 -30 5
-48 22 -15 21 -16 -79 -189 -56 -96 -111 -192 -123 -213 -11 -22 -25 -43 -30
-48 -13 -14 -10 -88 4 -107 7 -8 20 -18 30 -22 24 -9 22 -22 -12 -77 -43 -69
-45 -100 -7 -100 19 0 32 13 61 65 34 61 37 64 58 53 37 -21 72 -20 99 2 22
17 68 91 184 295 93 165 98 173 123 163 26 -9 51 5 51 28 0 8 -19 26 -42 40
-24 15 -44 28 -46 29 -2 1 5 19 15 39 17 35 20 37 56 31 107 -16 158 108 69
168 -78 52 -183 108 -210 112 -16 1 -40 -4 -55 -13z m79 -61 c9 -9 98 -61 141
-83 29 -14 36 -34 17 -52 -15 -15 -13 -16 -181 80 -40 23 -46 64 -10 64 13 0
27 -4 33 -9z m18 -190 c-22 -43 -41 -56 -59 -41 -17 14 -13 39 12 77 14 21 17
21 38 7 21 -14 22 -17 9 -43z m-16 -137 c3 -2 -65 -126 -84 -152 -1 -2 -36 16
-77 40 -68 40 -73 45 -64 66 12 26 24 27 51 7 25 -19 50 -19 66 0 9 11 7 19
-12 37 -13 13 -32 28 -41 33 -16 9 -16 12 -2 32 l15 22 73 -41 c39 -23 73 -42
75 -44z m-195 -165 c40 -23 73 -43 75 -44 3 -2 -18 -39 -92 -165 -15 -25 -29
-53 -32 -62 -10 -29 -36 -25 -99 13 -60 36 -72 53 -56 78 6 10 13 10 28 2 29
-15 58 8 49 37 -4 12 -14 22 -22 22 -18 0 -18 11 0 35 13 18 15 18 49 2 45
-22 54 -21 66 2 11 20 -2 37 -46 60 -20 10 -21 15 -11 36 6 14 13 25 15 25 3
0 37 -19 76 -41z"/>
</g>
</svg>
